<?xml version="1.0" encoding="utf-8"?>
<!-- Generator: Adobe Illustrator 23.0.5, SVG Export Plug-In . SVG Version: 6.00 Build 0)  -->
<svg version="1.1" id="Layer_1"
	xmlns="http://www.w3.org/2000/svg"
	xmlns:xlink="http://www.w3.org/1999/xlink" x="0px" y="0px" viewBox="0 0 1440 216.9" style="enable-background:new 0 0 1440 216.9;" xml:space="preserve">
	<style type="text/css">
	.st0{fill:#55577F;}
	</style>
	<path class="st0" d="M0,192l48,5.3c48,5.7,144,15.7,240,0C384,181,480,139,576,112s192-37,288-26.7c96,10.7,192,42.7,288,53.4
	c96,10.3,192,0.3,240-5.4l48-5.3V0h-48c-48,0-144,0-240,0S960,0,864,0S672,0,576,0S384,0,288,0S96,0,48,0H0V192z"/>
</svg>
